<svg id="Ebene_1" data-name="Ebene 1" xmlns="http://www.w3.org/2000/svg" viewBox="0 0 196.08 70.25"><defs><style>.cls-1{fill:#1d1d1b;}.cls-2{fill:#68c0b5;}.cls-3{fill:#74b1da;}.cls-4{fill:#e94843;}</style></defs><title>Logo in Pfaden - 4c</title><path class="cls-1" d="M29,23.91v8.91c0,3-2,4.55-5,4.55s-5-1.54-5-4.55v-.38h2.94v.38a1.83,1.83,0,0,0,2,2,1.85,1.85,0,0,0,2.09-2V23.91Z"/><path class="cls-1" d="M41.64,32.55c0,3.19-2.09,4.82-5.31,4.82s-5.27-1.63-5.27-4.82v-4c0-3.19,2.09-4.82,5.31-4.82s5.27,1.63,5.27,4.82Zm-2.94-4a2.1,2.1,0,0,0-2.33-2.26A2.11,2.11,0,0,0,34,28.54v4a2.1,2.1,0,0,0,2.33,2.26,2.11,2.11,0,0,0,2.37-2.26Z"/><path class="cls-1" d="M49.16,32.08,47,31.7c-2.27-.4-3.64-1.7-3.64-3.79,0-2.82,2-4.19,5.1-4.19s5.1,1.37,5.1,4v.32H50.6v-.32c0-1-.79-1.48-2.16-1.48s-2.06.4-2.06,1.42c0,.7.55,1.18,1.34,1.31l2.18.38c2.39.42,3.64,1.7,3.64,3.77,0,2.84-1.95,4.21-5.1,4.21s-5.1-1.37-5.1-4V33h2.94v.32c0,1,.8,1.48,2.16,1.48s2.07-.38,2.07-1.44C50.51,32.65,50,32.21,49.16,32.08Z"/><path class="cls-1" d="M63.08,31.81H58.37v5.37H55.44V23.91h2.93v5.35h4.71V23.91H66V37.18H63.08Z"/><path class="cls-1" d="M78.77,23.91v8.64c0,3.19-2.09,4.82-5.31,4.82s-5.27-1.63-5.27-4.82V23.91h2.94v8.64a2.35,2.35,0,0,0,4.7,0V23.91Z"/><path class="cls-1" d="M92.09,37.18H88.91l-.85-2.81H83.57l-.86,2.81h-2.9l4.34-13.27h3.6Zm-7.75-5.37h2.92L85.8,27Z"/><path class="cls-1" d="M108.07,29.69,105,35.6l-3.11-5.91v7.49H98.92V23.91h2.84L105,30l3.2-6.1H111V37.18h-2.94Z"/><path class="cls-1" d="M124.43,37.18h-3.18l-.86-2.81H115.9l-.85,2.81h-2.9l4.34-13.27h3.6ZM115,20.5h2.37v2.56H115Zm1.71,11.31h2.92L118.14,27Zm2.56-11.31h2.37v2.56h-2.37Z"/><path class="cls-1" d="M125.57,23.91h5.65c2.75,0,4.55,1.29,4.55,4.42,0,2.16-.86,3.47-2.3,4.05l2.49,4.8h-3.42l-2.16-4.42h-1.87v4.42h-2.94Zm2.94,6.29h2.61c1,0,1.61-.45,1.61-1.87s-.64-1.86-1.61-1.86h-2.61Z"/><path class="cls-1" d="M141.55,32l-1,1.12v4h-2.94V23.91h2.94v5.18l4.19-5.18h3.58l-4.91,5.86,5.2,7.41h-3.57Z"/><path class="cls-1" d="M149.61,23.91h9.24v2.56h-6.31v2.79h5.37v2.55h-5.37v2.81h6.31v2.56h-9.24Z"/><path class="cls-1" d="M160.75,23.91h5.65c2.75,0,4.55,1.29,4.55,4.42,0,2.16-.86,3.47-2.3,4.05l2.49,4.8h-3.42l-2.16-4.42h-1.87v4.42h-2.94Zm2.94,6.29h2.61c1,0,1.61-.45,1.61-1.87s-.64-1.86-1.61-1.86h-2.61Z"/><path class="cls-1" d="M172.84,34.05H176v3.13h-3.13Z"/><path class="cls-1" d="M65.56,45.7a2.08,2.08,0,0,1-2.38,2.18H61.07V41.63h2.12a2.09,2.09,0,0,1,2.37,2.18Zm-.41-1.89a1.73,1.73,0,0,0-2-1.82H61.48v5.53h1.7a1.73,1.73,0,0,0,2-1.82Z"/><path class="cls-1" d="M66.88,41.51h.39v.86h-.39Zm0,1.86h.39v4.51h-.39Z"/><path class="cls-1" d="M68.51,44.93a1.53,1.53,0,0,1,1.72-1.64,1.68,1.68,0,0,1,1.52.71l.06-.63h.31V48.1a1.61,1.61,0,0,1-1.84,1.66c-1.1,0-1.78-.58-1.77-1.52h.4c0,.72.5,1.18,1.37,1.18s1.45-.48,1.45-1.3v-1a1.71,1.71,0,0,1-1.5.69,1.54,1.54,0,0,1-1.72-1.65Zm.4,1.29a1.22,1.22,0,0,0,1.37,1.28,1.3,1.3,0,0,0,1.45-1.35V45a1.3,1.3,0,0,0-1.45-1.35,1.22,1.22,0,0,0-1.37,1.28Z"/><path class="cls-1" d="M73.45,41.51h.4v.86h-.4Zm0,1.86h.4v4.51h-.4Z"/><path class="cls-1" d="M76.07,46.29c0,1.08.2,1.48,1.52,1.26v.33c-1.71.31-1.91-.39-1.91-1.67v-2.5h-1v-.34h1V41.73l.39-.11v1.75h1.52v.34H76.07Z"/><path class="cls-1" d="M80.06,45.3a1.84,1.84,0,0,1,1.5.56V44.8c0-.8-.5-1.19-1.31-1.19S79,43.92,79,44.69h-.4c0-1,.62-1.4,1.68-1.4S82,43.78,82,44.82v3.06h-.32l0-.53a1.81,1.81,0,0,1-1.54.62c-1.07,0-1.71-.41-1.71-1.34S79,45.3,80.06,45.3Zm.06,2.33c.85,0,1.44-.36,1.44-1s-.59-1-1.44-1-1.38.31-1.38,1S79.27,47.63,80.12,47.63Z"/><path class="cls-1" d="M83.28,41.28h.4v6.6h-.4Z"/><path class="cls-2" d="M87.56,41.63h1.38v6.25H87.56Z"/><path class="cls-1" d="M92.82,41.63h3.69V42H93.23V44.7h2.83v.37H93.23v2.81h-.41Z"/><path class="cls-1" d="M97.17,41.51h.4v.86h-.4Zm0,1.86h.4v4.51h-.4Z"/><path class="cls-1" d="M98.9,43.37h.32l0,.61a1.76,1.76,0,0,1,1.54-.69c1.08,0,1.71.49,1.71,1.57v3h-.39v-3c0-.85-.53-1.22-1.38-1.22s-1.44.44-1.44,1.28v3h-.4Z"/><path class="cls-1" d="M105.27,45.3a1.86,1.86,0,0,1,1.51.56V44.8c0-.8-.51-1.19-1.31-1.19s-1.29.31-1.29,1.08h-.39c0-1,.62-1.4,1.68-1.4s1.7.49,1.7,1.53v3.06h-.31l0-.53a1.83,1.83,0,0,1-1.55.62c-1.07,0-1.7-.41-1.7-1.34S104.2,45.3,105.27,45.3Zm.06,2.33c.85,0,1.45-.36,1.45-1s-.6-1-1.45-1-1.37.31-1.37,1S104.49,47.63,105.33,47.63Z"/><path class="cls-1" d="M108.5,43.37h.31l0,.61a1.76,1.76,0,0,1,1.53-.69c1.08,0,1.72.49,1.72,1.57v3h-.4v-3c0-.85-.52-1.22-1.37-1.22s-1.45.44-1.45,1.28v3h-.39Z"/><path class="cls-1" d="M116.94,46.45h0c0,.93-.67,1.51-1.78,1.51a1.6,1.6,0,0,1-1.83-1.66V45c0-1.06.68-1.66,1.83-1.66s1.78.58,1.78,1.5h-.39v0c0-.69-.51-1.15-1.39-1.15a1.25,1.25,0,0,0-1.43,1.3v1.41c0,.82.52,1.3,1.43,1.3s1.39-.45,1.39-1.14v0Z"/><path class="cls-1" d="M121.6,46.53c0,.89-.69,1.44-1.78,1.44A1.6,1.6,0,0,1,118,46.31V44.93a1.81,1.81,0,0,1,3.61,0v.79h-3.22v.62c0,.8.51,1.29,1.44,1.29s1.37-.44,1.38-1.1Zm-3.22-1.15h2.82V44.9a1.42,1.42,0,0,0-2.82,0Z"/><path class="cls-3" d="M125.38,41.63h1.38v6.25h-1.38Z"/><path class="cls-1" d="M133.41,45l-1.26-.24a1.55,1.55,0,0,1-1.48-1.59c0-1.07.75-1.66,2.13-1.66s2.12.63,2.12,1.88v0h-.41v0c0-1-.58-1.52-1.71-1.52s-1.7.47-1.7,1.28a1.19,1.19,0,0,0,1.14,1.23l1.26.24c.93.19,1.48.68,1.48,1.59,0,1.14-.81,1.73-2.2,1.73s-2.18-.62-2.18-1.87v-.05H131v.05c0,1,.64,1.51,1.77,1.51s1.77-.45,1.77-1.34C134.55,45.56,134.12,45.18,133.41,45Z"/><path class="cls-1" d="M139.78,46.33c0,1.09-.72,1.64-1.81,1.64a1.58,1.58,0,0,1-1.8-1.64v-1.4a1.58,1.58,0,0,1,1.8-1.64c1.09,0,1.81.55,1.81,1.64Zm-.4-1.43c0-.85-.56-1.28-1.41-1.28a1.24,1.24,0,0,0-1.41,1.28v1.46c0,.84.57,1.27,1.41,1.27s1.41-.43,1.41-1.27Z"/><path class="cls-1" d="M141,41.28h.4v6.6H141Z"/><path class="cls-1" d="M146.34,47.88H146l-.05-.61a1.7,1.7,0,0,1-1.53.7c-1.08,0-1.71-.49-1.71-1.57v-3h.39v3.05c0,.85.53,1.21,1.37,1.21S146,47.2,146,46.36v-3h.39Z"/><path class="cls-1" d="M148.56,46.29c0,1.08.21,1.48,1.53,1.26v.33c-1.72.31-1.92-.39-1.92-1.67v-2.5h-1v-.34h1V41.73l.39-.11v1.75h1.53v.34h-1.53Z"/><path class="cls-1" d="M151.11,41.51h.39v.86h-.39Zm0,1.86h.39v4.51h-.39Z"/><path class="cls-1" d="M156.35,46.33c0,1.09-.71,1.64-1.81,1.64a1.58,1.58,0,0,1-1.8-1.64v-1.4c0-1.09.72-1.64,1.81-1.64s1.8.55,1.8,1.64ZM156,44.9c0-.85-.56-1.28-1.41-1.28s-1.41.43-1.41,1.28v1.46a1.23,1.23,0,0,0,1.4,1.27c.86,0,1.42-.43,1.42-1.27Z"/><path class="cls-1" d="M157.59,43.37h.31l0,.61a1.78,1.78,0,0,1,1.54-.69c1.08,0,1.71.49,1.71,1.57v3h-.39v-3c0-.85-.53-1.22-1.37-1.22S158,44.06,158,44.9v3h-.39Z"/><path class="cls-1" d="M164.69,45.86l-1-.19c-.73-.14-1.19-.5-1.19-1.18s.55-1.2,1.7-1.2,1.66.45,1.66,1.36v.05h-.39v0c0-.7-.4-1-1.27-1s-1.31.31-1.31.86.31.75.88.86l1,.19c.74.16,1.19.51,1.19,1.17,0,.84-.67,1.27-1.78,1.27s-1.8-.45-1.8-1.36v0h.39v0c0,.7.51,1,1.41,1s1.39-.31,1.39-.92S165.25,46,164.69,45.86Z"/><path class="cls-4" d="M169.74,41.63h1.38v6.25h-1.38Z"/></svg>